<?xml version="1.0" encoding="utf-8"?>
<!-- Generator: Adobe Illustrator 23.0.1, SVG Export Plug-In . SVG Version: 6.00 Build 0)  -->
<svg version="1.1" id="Layer_1" xmlns="http://www.w3.org/2000/svg" xmlns:xlink="http://www.w3.org/1999/xlink" x="0px" y="0px"
	 viewBox="0 0 60 60" style="enable-background:new 0 0 60 60;" xml:space="preserve">
<style type="text/css">
	.st0{fill:none;stroke:#000000;stroke-width:10;stroke-linejoin:round;}
	.st1{fill:none;stroke:#000000;stroke-width:2;stroke-linejoin:round;}
</style>
<path id="Conway" class="st0" d="M1578,1170.9l127.6,5.1l67.7,2.3l109.2,2.1h14.3l5.6,0.5l11.8-0.1l-1.3,56.9v11.1l-0.4,25.7
	l-0.5,1.5v2l-0.7,96.7l-3.5,7.6l-2.1,1l-2,1v5.6l-5.6,3.5l-3.1,2l-3.1,2.1l-2.5,1.5l-3.1,1l-2.5,2.5l2.5,6.1l3.1,3.5l2.6,2.5l-1,4.5
	l-1.5,0.5l-2.1-1.5l-3.1-1h-0.5l-1,2.5l-0.5,4.6l-1.5,3.5l-2.1,1l-0.5,0.5l-2.5,1.6l-1.1,2.5l-1.5,0.5l-2.6-0.5l-3.5,1.5l-0.5,3v2.5
	l2.5,3.6l2.6,1l2.6,0.5l0.5,3.5l-2,1l-2.1,2.5v9.1l-2.5,7v2.6l0.5,3l2.1,3l3.1,1.5l2.6,3.5l8.7,6.5l5.6,2l3.1,2.5l0.5,4.1l-0.5,2.5
	h-0.5l-3.6,2.5l1.1,1.5l1.5,2.5l0.1,10.1l-1.1,5.6l-1.5,2l-2,2l-1,0.5h-1.6l-1.5,1l1,2l3.6,1.5l0.5,2.5l-0.5,3.6l-4.6,3.5l-2,2
	l-0.5,1.6l-1.5,7l-2.1,6.1l-2.5,3l-3.6,1.5l-3.6-0.5l-3.1-1l-4.1-4.5l-3.1-4l-2.5-2.5h-2.1l-1,1l-7.2,7.1l-5.1,6h-5.1l-12.3,6.1
	l-7.6,7.1l-4.6,5.1l-3.6,5l-8.6,9.1l-7.2,3.1l-19,3l-9.2-0.4v-7.1l2.5-3.5l8.7-5.6l6.7-6.1l2.5-4.5v-5.5l-1.6-3.1l-3-2.5l-3.6-0.5
	l-8.2,2.6l-7.2,6.1l-5.6,11.6l-14.3,14.6l-9.7,3.1l-12.3,3.5l-17.9,2.6l-299.2-6.5l14.3-14.2l0.5-2l-3.6-7l-4.7-2.5l-4.1-2.5l-1-3.5
	v-6.1l4-2l8.8-0.5l8.1-3.1l8.8,1.5l7.6-3.1l3.6-1l5.7,2.5l7.6-2l3.1-3.1l1.5-4.5l1-2.5l-1.5-3l1-4.1l3.1-3.5l5.1-0.5l10.2-5.1
	l9.2-13.6l6.6-3.1l5.6-7.6l4.6-3.5l1.1-1l4-3.5l8.2,1.4h13.4l19.9-3.6l12.3,1l6.7,4l0.9-36.8l0.8-53.9V1397l0.4-34.2l0.4-18.7l0.5-5
	l0.2-71l2.4-64.5L1578,1170.9z"/>
<path id="Conway_1_" class="st1" d="M21.36,6.23l13.91,0.56l7.38,0.25l11.9,0.23h1.56l0.61,0.05L58,7.31l-0.14,6.2v1.21l-0.04,2.8
	l-0.05,0.16v0.22l-0.08,10.54l-0.38,0.83l-0.23,0.11l-0.22,0.11v0.61l-0.61,0.38l-0.34,0.22l-0.34,0.23l-0.27,0.16l-0.34,0.11
	l-0.27,0.27l0.27,0.66l0.34,0.38l0.28,0.27l-0.11,0.49l-0.16,0.05l-0.23-0.16l-0.34-0.11h-0.05l-0.11,0.27l-0.05,0.5l-0.16,0.38
	l-0.23,0.11l-0.05,0.05l-0.27,0.17l-0.12,0.27l-0.16,0.05l-0.28-0.05l-0.38,0.16l-0.05,0.33v0.27l0.27,0.39l0.28,0.11l0.28,0.05
	l0.05,0.38l-0.22,0.11l-0.23,0.27v0.99l-0.27,0.76v0.28l0.05,0.33l0.23,0.33l0.34,0.16l0.28,0.38l0.95,0.71l0.61,0.22l0.34,0.27
	l0.05,0.45l-0.05,0.27h-0.05l-0.39,0.27l0.12,0.16l0.16,0.27l0.01,1.1l-0.12,0.61l-0.16,0.22l-0.22,0.22l-0.11,0.05h-0.17
	l-0.16,0.11l0.11,0.22l0.39,0.16l0.05,0.27l-0.05,0.39l-0.5,0.38l-0.22,0.22l-0.05,0.17l-0.16,0.76l-0.23,0.66l-0.27,0.33
	l-0.39,0.16l-0.39-0.05l-0.34-0.11l-0.45-0.49l-0.34-0.44l-0.27-0.27h-0.23l-0.11,0.11l-0.78,0.77L49.88,49h-0.56l-1.34,0.66
	l-0.83,0.77l-0.5,0.56l-0.39,0.54l-0.94,0.99l-0.78,0.34l-2.07,0.33l-1-0.04v-0.77l0.27-0.38l0.95-0.61l0.73-0.66l0.27-0.49v-0.6
	l-0.17-0.34l-0.33-0.27l-0.39-0.05l-0.89,0.28l-0.78,0.66l-0.61,1.26l-1.56,1.59l-1.06,0.34l-1.34,0.38l-1.95,0.28L2,53.06
	l1.56-1.55l0.05-0.22l-0.39-0.76L2.7,50.26l-0.45-0.27l-0.11-0.38v-0.66l0.44-0.22l0.96-0.05l0.88-0.34l0.96,0.16l0.83-0.34
	l0.39-0.11l0.62,0.27l0.83-0.22l0.34-0.34l0.16-0.49L8.67,47L8.5,46.68l0.11-0.45l0.34-0.38l0.56-0.05l1.11-0.56l1-1.48l0.72-0.34
	l0.61-0.83l0.5-0.38l0.12-0.11l0.44-0.38l0.89,0.15h1.46l2.17-0.39l1.34,0.11l0.73,0.44l0.1-4.01l0.09-5.87v-1.26l0.04-3.73
	l0.04-2.04l0.05-0.54l0.02-7.74l0.26-7.03L21.36,6.23z"/>
</svg>
