<?xml version="1.0" encoding="utf-8"?>
<!-- Generator: Adobe Illustrator 23.0.1, SVG Export Plug-In . SVG Version: 6.00 Build 0)  -->
<svg version="1.1" id="Layer_1" xmlns="http://www.w3.org/2000/svg" xmlns:xlink="http://www.w3.org/1999/xlink" x="0px" y="0px"
	 viewBox="0 0 60 60" style="enable-background:new 0 0 60 60;" xml:space="preserve">
<style type="text/css">
	.st0{fill:none;stroke:#000000;stroke-width:2;stroke-linejoin:round;}
</style>
<path id="Faulkner" class="st0" d="M39.15,2.53l3.17,0.19l1.92-0.06h0.95l6.64-0.07L51.54,19.7l-0.04,2.18l-0.1,1.58l-0.05,0.45
	l-0.13,6.68l-0.05,0.88l-0.04,3.37L51,40.78l-3.72-0.14l-0.91-0.04l-4.73-0.19l-0.2,3.21l-0.13,6.48l-1.36-0.04H39.8l-1.5-0.05
	h-0.11l-6.44-0.18l-3.12-0.04l-1.51,0.01l-2.77-0.04l0.26,0.39v0.54l-0.05,0.4l-0.34,0.54l-0.71,0.16l-0.55,0.39l-0.4,0.4
	l-0.45,0.64l-0.2,1.29l0.21,0.99v0.2l0.11,0.8l-0.45,1.48l-0.76-0.1l-0.35-0.44l-0.3-0.54l-0.05-0.6l0.2-0.59l0.4-1.14l0.25-0.94
	l-0.06-1.24l-0.45-1.39l-0.26-0.69l-0.21-0.6l-0.61-1.19l-0.66-0.84l-0.4-0.25l-1.26-0.25l-2.72-0.14l-1.4-0.1l-1.37-0.53L10,45.37
	l-0.91-1.03l-0.91-1.73v-0.84l0.15-0.49l0.4-0.45l1.36-0.84l0.65-1.19l0.76-0.7l0.95-1.14l0.39-1.24l0.6-2.23l-0.11-1.04l-0.35-0.88
	l-0.26-0.59l-0.5-0.65l-0.56-0.29l0.5-0.59l0.71-0.7l0.1-0.1h0.21l0.25,0.25l0.3,0.39l0.4,0.44l0.3,0.1l0.35,0.05l0.35-0.15
	l0.25-0.29l0.21-0.6l0.15-0.69l0.05-0.16l0.2-0.2l0.45-0.34l0.05-0.35l-0.05-0.25l-0.35-0.15l-0.1-0.2l0.15-0.1h0.16l0.1-0.05
	l0.2-0.2l0.15-0.2l0.11-0.55l-0.01-0.99l-0.15-0.25l-0.11-0.15l0.35-0.25h0.05l0.05-0.25l-0.05-0.4l-0.3-0.25l-0.55-0.2l-0.85-0.64
	L15,21.7l-0.3-0.15l-0.21-0.29l-0.05-0.29v-0.26l0.25-0.69v-0.89l0.21-0.25l0.2-0.1l-0.05-0.34l-0.26-0.05l-0.26-0.1l-0.25-0.35
	v-0.25l0.05-0.29l0.34-0.15l0.26,0.05l0.15-0.05l0.11-0.25l0.25-0.16l0.05-0.05l0.21-0.1l0.15-0.34l0.05-0.45l0.1-0.25h0.05l0.3,0.1
	l0.21,0.15l0.15-0.05l0.1-0.44l-0.26-0.25l-0.3-0.34l-0.25-0.6l0.25-0.25l0.3-0.1l0.25-0.15l0.3-0.21l0.3-0.2l0.55-0.34v-0.55
	l0.2-0.1l0.21-0.1l0.34-0.75l0.07-9.5l2.77,0.04h0.95l2.57,0.09h0.2l1.21,0.05l0.3-0.05l5.39,0.23l0.29-0.05l0.71,0.05h0.26
	l1.71,0.04l0.45,0.05L39.15,2.53z"/>
</svg>
