<?xml version="1.0" encoding="utf-8"?>
<!-- Generator: Adobe Illustrator 23.0.1, SVG Export Plug-In . SVG Version: 6.00 Build 0)  -->
<svg version="1.1" id="Layer_1" xmlns="http://www.w3.org/2000/svg" xmlns:xlink="http://www.w3.org/1999/xlink" x="0px" y="0px"
	 viewBox="0 0 60 60" style="enable-background:new 0 0 60 60;" xml:space="preserve">
<style type="text/css">
	.st0{fill:none;stroke:#000000;stroke-width:2;stroke-linejoin:round;}
</style>
<path id="Pulaski" class="st0" d="M50.82,5.77l2.2,0.08l1.68,0.04L54.66,6.9l-0.15,7.12h0.22l-0.13,1.36l-0.28,6.79h0.21l-0.2,3.39
	l-0.07,6.41l-1.15,1.79l-0.26,0.98l-0.03,0.64v0.55l-0.04,0.51l-0.3,1.31l0.05,0.34l0.13,0.64l-0.17,0.42l-0.08,0.3l-0.64,2.04
	l-0.13,0.34l-0.09,0.3l0.56-0.01l0.47,0.04l5.4,0.11l0.02,5.39l-0.04,0.56l0.04,0.21l-0.04,1.52L58,52.79l-0.04,0.81l-0.04,0.93
	h-0.69l-1.81,0.01h-0.56l-0.9-0.04l-9.83-0.22l-2.85-0.03l0.1-8.15l-8.02-0.14l0.16-4.08l-7.72-0.14l0.2-4.16h-0.44l-3.92-0.11
	v-0.21l0.08-1.19l-0.08-0.04l-4.06-0.03l0.12-3.81l0.04-0.68v-0.34l0.03-0.72l0.04-1.27L9.79,28.9l0.08-2.08l0.13-2.64l-0.06-3.39
	l-6.69-0.23L2,20.52l0.08-2.5l0.03-2.88l8.02,0.31l0.04-1.1l0.04-1.02l0.04-0.72l8.02,0.31l0.08-1.83l1.2,0.08l2.33,0.12l1.08,0.21
	l0.35,0.21l0.56,0.72l0.52,1.02l0.18,0.51l0.22,0.59l0.39,1.19l0.05,1.06l-0.21,0.81l-0.35,0.98l-0.17,0.51l0.04,0.51l0.26,0.46
	l0.3,0.38l0.65,0.08l0.39-1.27l-0.09-0.68v-0.17l-0.18-0.85l0.17-1.1l0.39-0.55l0.35-0.35l0.47-0.34l0.61-0.13l0.29-0.46l0.04-0.35
	v-0.46l-0.22-0.34l2.37,0.03l1.3-0.01l2.68,0.03l5.51,0.15h0.09l1.29,0.04h0.13l1.16,0.03l0.11-5.56l0.17-2.75l4.05,0.16l0.78,0.03
	L50.82,5.77z"/>
</svg>
