<?xml version="1.0" encoding="utf-8"?>
<!-- Generator: Adobe Illustrator 23.0.1, SVG Export Plug-In . SVG Version: 6.00 Build 0)  -->
<svg version="1.1" id="Layer_1" xmlns="http://www.w3.org/2000/svg" xmlns:xlink="http://www.w3.org/1999/xlink" x="0px" y="0px"
	 viewBox="0 0 60 60" style="enable-background:new 0 0 60 60;" xml:space="preserve">
<style type="text/css">
	.st0{fill:none;stroke:#000000;stroke-width:2;stroke-miterlimit:10;}
	.st1{fill:none;stroke:#000000;stroke-width:2;stroke-linejoin:round;stroke-miterlimit:10;}
</style>
<g>
	<path class="st0" d="M57.47,47.62c-0.44-2.28-18.18-11.86-18.18-12.17s-0.95-0.64-1.08-1.08c-1.1-3.82,0.84-9.2,0.84-9.2
		s0.57,0,1.08-0.06c0.51-0.06,1.14-6.09,1.08-7.1c-0.06-1.01-1.08-0.95-1.08-0.95s2.52-13.72-7.47-14.42c0,0-0.27-0.02-0.71-0.03
		c-0.03,0-0.06,0-0.09,0c-1.09-0.02-3.07,0.03-4.69,0.47c-2.53,0.7-3.62,2.65-3.82,3.03c-0.21,0.38-0.9,2.63-0.9,2.63
		c-1.45,4.33-0.18,9.37-0.18,9.37s-0.18-0.45-1.23-0.12c-1.05,0.33,0.27,5.3,0.56,7.02c0.29,1.71,2.52,0.92,2.52,0.92
		s1.53,6.47-0.4,8.79c-0.06,0.07-0.38,0-0.38,0S8.69,44,5.07,46.19c-3.61,2.19-3.04,11.22-3.04,11.22H58
		C58,57.42,57.91,49.9,57.47,47.62z"/>
	<polygon class="st1" points="28.11,57.42 23.72,34.68 23.4,34.06 31.72,38.65 38.37,34.62 39.37,35.21 35.58,57.42 	"/>
	<polygon class="st0" points="31.72,39.36 29.23,42.77 30.4,44.12 29.08,57.42 35.08,57.42 33.17,44.12 34.28,42.88 	"/>
</g>
</svg>
