<?xml version="1.0" encoding="utf-8"?>
<!-- Generator: Adobe Illustrator 23.0.1, SVG Export Plug-In . SVG Version: 6.00 Build 0)  -->
<svg version="1.1" id="Layer_1" xmlns="http://www.w3.org/2000/svg" xmlns:xlink="http://www.w3.org/1999/xlink" x="0px" y="0px"
	 viewBox="0 0 60 60" style="enable-background:new 0 0 60 60;" xml:space="preserve">
<style type="text/css">
	.st0{fill:none;stroke:#000000;stroke-width:2;stroke-linecap:round;stroke-linejoin:round;stroke-miterlimit:10;}
</style>
<path d="M555.06,648.67c-1.15-6.12-19.58-15.39-30.84-20.87c0.1-3.84-6.31-12.71-8.88-13.93c0.19-11.83,2.35-18.48,2.35-18.48
	s2.45,0.84,3.34-2.23c2-6.92,3.56-10.22,3.41-12.61c-0.06-0.9-0.59-1.12-1.24-1.04c3.59-11.24,2.14-23.36-2.83-30.54
	c-0.37-0.54-0.76-1.03-1.16-1.47c0.42-1.17,0.66-2.4,0.66-3.69c0-9.39-6.67-18.1-20.74-18.1c-8.53,0-15.45,7.61-15.45,17
	c0,1.35,0.16,2.66,0.43,3.92c-0.57,0.45-1.13,0.95-1.68,1.51c-7.19,7.19-5.89,22.21-3.58,32.61c0.19,0.96,0.33,1.5,0.33,1.5
	s-0.75-0.78-1.25-0.09c-1.52,2.09,1.69,9.15,5.19,14.19c3.12,4.5,3,1.5,3,1.5s3.62,7.21,4.78,16.08h0
	c-3.47-1.05-8.82,13.62-8.82,13.62c-0.02,0.28-0.01,0.54,0.05,0.8c-8.66,5.48-21.11,11.43-26.41,14.64
	c-8.51,5.15-7.16,26.41-7.16,26.41h108.15C556.69,669.39,556.08,654.05,555.06,648.67"/>
<g>
	<path class="st0" d="M50.17,48.43c-0.62-1.64-9.15-6.04-13-8.29c-1.14-0.66-2.31-2.46-2.39-3.03c5.98-0.77,9.51-1.98,9.51-1.98
		S47.31-0.63,28.83,2.28l-0.51-0.14c0,0-8.98-2.77-10.02,15.3c-0.18,3.11,0,6.57,0,8.72c0,5.81-4.43,8.96-4.43,8.96
		s5.01,1.93,11.06,2.42c-0.74,2.56-9.48,7.41-12.91,9.49c-3.53,2.14-2.98,10.97-2.98,10.97H50.7C50.7,58.01,51.6,52.24,50.17,48.43"
		/>
	<polygon class="st0" points="20.57,40.96 23.54,45.74 24.09,45.51 27.38,58.01 32.26,45.06 33.29,45.52 37.17,40.14 35.46,38.41 
		28.27,44.48 23.74,37.93 20.64,40.86 	"/>
</g>
<path class="st0" d="M37.37,38.4"/>
<path class="st0" d="M48.33,37.37"/>
</svg>
