<?xml version="1.0" encoding="utf-8"?>
<!-- Generator: Adobe Illustrator 23.0.1, SVG Export Plug-In . SVG Version: 6.00 Build 0)  -->
<svg version="1.1" id="Layer_1" xmlns="http://www.w3.org/2000/svg" xmlns:xlink="http://www.w3.org/1999/xlink" x="0px" y="0px"
	 viewBox="0 0 60 60" style="enable-background:new 0 0 60 60;" xml:space="preserve">
<style type="text/css">
	.st0{fill:none;stroke:#000000;stroke-width:2;stroke-linejoin:round;stroke-miterlimit:10;}
</style>
<path class="st0" d="M57.46,48c-0.38-1.94-13.2-9.12-17.08-11.45c-0.2-1.59-1.67-5.41-2.45-5.9c0.25-2.72,1.11-5.1,1.11-5.1
	s0.57,0,1.08-0.06c0.51-0.06,1.14-6.09,1.08-7.1c-0.06-1.02-1.08-0.95-1.08-0.95s0.07-0.36,0.13-0.96
	c1.51-3.95,0.05-10.04-1.12-11.43c-0.96-1.14-2.5-1.48-3.51-1.43c-1.84-1.8-6.85-1.38-8.51-1.33c-1.86,0.05-1.7,1.43-1.7,1.43
	s-1.59-0.8-4.46,4.2c-2.28,3.96,0.13,8.5,1.22,10.19c0.05,0.22,0.08,0.35,0.08,0.35s-0.18-0.45-1.23-0.12
	c-1.05,0.33,0.27,5.3,0.56,7.02c0.29,1.71,2.52,0.92,2.52,0.92s0.51,2.18,0.57,4.46c-1.15,0.54-1.89,3.44-2.19,4.86
	c-3.15,2-14.33,9.1-17.42,10.97C1.46,48.76,2.03,57.8,2.03,57.8H58C58,57.8,57.91,50.28,57.46,48"/>
</svg>
