<?xml version="1.0" encoding="utf-8"?>
<!-- Generator: Adobe Illustrator 23.0.1, SVG Export Plug-In . SVG Version: 6.00 Build 0)  -->
<svg version="1.1" id="Layer_1" xmlns="http://www.w3.org/2000/svg" xmlns:xlink="http://www.w3.org/1999/xlink" x="0px" y="0px"
	 viewBox="0 0 60 60" style="enable-background:new 0 0 60 60;" xml:space="preserve">
<style type="text/css">
	.st0{fill:none;stroke:#000000;stroke-width:2;stroke-linejoin:round;stroke-miterlimit:10;}
</style>
<path d="M555.06,648.67c-1.15-6.12-19.58-15.39-30.84-20.87c0.1-3.84-6.31-12.71-8.88-13.93c0.19-11.83,2.35-18.48,2.35-18.48
	s2.45,0.84,3.34-2.23c2-6.92,3.56-10.22,3.41-12.61c-0.06-0.9-0.59-1.12-1.24-1.04c3.59-11.24,2.14-23.36-2.83-30.54
	c-0.37-0.54-0.76-1.03-1.16-1.47c0.42-1.17,0.66-2.4,0.66-3.69c0-9.39-6.67-18.1-20.74-18.1c-8.53,0-15.45,7.61-15.45,17
	c0,1.35,0.16,2.66,0.43,3.92c-0.57,0.45-1.13,0.95-1.68,1.51c-7.19,7.19-5.89,22.21-3.58,32.61c0.19,0.96,0.33,1.5,0.33,1.5
	s-0.75-0.78-1.25-0.09c-1.52,2.09,1.69,9.15,5.19,14.19c3.12,4.5,3,1.5,3,1.5s3.62,7.21,4.78,16.08h0
	c-3.47-1.05-8.82,13.62-8.82,13.62c-0.02,0.28-0.01,0.54,0.05,0.8c-8.66,5.48-21.11,11.43-26.41,14.64
	c-8.51,5.15-7.16,26.41-7.16,26.41h108.15C556.69,669.39,556.08,654.05,555.06,648.67"/>
<path class="st0" d="M50.46,49.93c-0.45-2.38-7.63-6-12.02-8.14c0.04-1.5-2.46-4.96-3.46-5.43c0.07-4.61,0.91-7.2,0.91-7.2
	s0.96,0.33,1.3-0.87c0.78-2.7,1.39-3.98,1.33-4.91c-0.02-0.35-0.23-0.44-0.48-0.41c1.4-4.38,0.83-9.1-1.1-11.91
	c-0.15-0.21-0.3-0.4-0.45-0.57c0.16-0.46,0.26-0.94,0.26-1.44c0-3.66-2.6-7.05-8.08-7.05c-3.33,0-6.02,2.97-6.02,6.63
	c0,0.53,0.06,1.04,0.17,1.53c-0.22,0.18-0.44,0.37-0.66,0.59c-2.8,2.8-2.3,8.66-1.4,12.71c0.07,0.37,0.13,0.58,0.13,0.58
	s-0.29-0.3-0.49-0.04c-0.59,0.81,0.66,3.57,2.02,5.53c1.22,1.75,1.17,0.58,1.17,0.58s1.41,2.81,1.86,6.27h0
	c-1.35-0.41-3.44,5.31-3.44,5.31C22,41.8,22,41.9,22.02,42c-3.38,2.14-8.23,4.46-10.3,5.71C8.41,49.72,8.94,58,8.94,58h42.16
	C51.09,58,50.86,52.02,50.46,49.93"/>
</svg>
