<?xml version="1.0" encoding="utf-8"?>
<!-- Generator: Adobe Illustrator 23.0.1, SVG Export Plug-In . SVG Version: 6.00 Build 0)  -->
<svg version="1.1" id="Layer_1" xmlns="http://www.w3.org/2000/svg" xmlns:xlink="http://www.w3.org/1999/xlink" x="0px" y="0px"
	 viewBox="0 0 60 60" style="enable-background:new 0 0 60 60;" xml:space="preserve">
<style type="text/css">
	.st0{fill:none;stroke:#000000;stroke-width:10;stroke-linecap:round;stroke-linejoin:round;}
	.st1{fill:none;stroke:#000000;stroke-width:2;stroke-linecap:round;stroke-miterlimit:10;}
</style>
<path id="Conway" class="st0" d="M1578,1170.9l127.6,5.1l67.7,2.3l109.2,2.1h14.3l5.6,0.5l11.8-0.1l-1.3,56.9v11.1l-0.4,25.7
	l-0.5,1.5v2l-0.7,96.7l-3.5,7.6l-2.1,1l-2,1v5.6l-5.6,3.5l-3.1,2l-3.1,2.1l-2.5,1.5l-3.1,1l-2.5,2.5l2.5,6.1l3.1,3.5l2.6,2.5l-1,4.5
	l-1.5,0.5l-2.1-1.5l-3.1-1h-0.5l-1,2.5l-0.5,4.6l-1.5,3.5l-2.1,1l-0.5,0.5l-2.5,1.6l-1.1,2.5l-1.5,0.5l-2.6-0.5l-3.5,1.5l-0.5,3v2.5
	l2.5,3.6l2.6,1l2.6,0.5l0.5,3.5l-2,1l-2.1,2.5v9.1l-2.5,7v2.6l0.5,3l2.1,3l3.1,1.5l2.6,3.5l8.7,6.5l5.6,2l3.1,2.5l0.5,4.1l-0.5,2.5
	h-0.5l-3.6,2.5l1.1,1.5l1.5,2.5l0.1,10.1l-1.1,5.6l-1.5,2l-2,2l-1,0.5h-1.6l-1.5,1l1,2l3.6,1.5l0.5,2.5l-0.5,3.6l-4.6,3.5l-2,2
	l-0.5,1.6l-1.5,7l-2.1,6.1l-2.5,3l-3.6,1.5l-3.6-0.5l-3.1-1l-4.1-4.5l-3.1-4l-2.5-2.5h-2.1l-1,1l-7.2,7.1l-5.1,6h-5.1l-12.3,6.1
	l-7.6,7.1l-4.6,5.1l-3.6,5l-8.6,9.1l-7.2,3.1l-19,3l-9.2-0.4v-7.1l2.5-3.5l8.7-5.6l6.7-6.1l2.5-4.5v-5.5l-1.6-3.1l-3-2.5l-3.6-0.5
	l-8.2,2.6l-7.2,6.1l-5.6,11.6l-14.3,14.6l-9.7,3.1l-12.3,3.5l-17.9,2.6l-299.2-6.5l14.3-14.2l0.5-2l-3.6-7l-4.7-2.5l-4.1-2.5l-1-3.5
	v-6.1l4-2l8.8-0.5l8.1-3.1l8.8,1.5l7.6-3.1l3.6-1l5.7,2.5l7.6-2l3.1-3.1l1.5-4.5l1-2.5l-1.5-3l1-4.1l3.1-3.5l5.1-0.5l10.2-5.1
	l9.2-13.6l6.6-3.1l5.6-7.6l4.6-3.5l1.1-1l4-3.5l8.2,1.4h13.4l19.9-3.6l12.3,1l6.7,4l0.9-36.8l0.8-53.9V1397l0.4-34.2l0.4-18.7l0.5-5
	l0.2-71l2.4-64.5L1578,1170.9z"/>
<g>
	<path class="st1" d="M42.84,36.75c0-2.4,1.95-4.35,4.35-4.35c2.4,0,4.35,1.95,4.35,4.35c0,2.4-1.95,4.35-4.35,4.35
		C44.8,41.1,42.84,39.15,42.84,36.75"/>
	<polygon class="st1" points="40.19,26.95 36.23,22.18 29.83,22.18 29.83,26.95 	"/>
	<path class="st1" d="M26.71,22.17c0,0-6.59-0.46-7.57,0.23c-0.98,0.69-1.38,4.55-1.38,4.55h8.96V22.17L26.71,22.17z"/>
	<path class="st1" d="M51.66,38.57c0.04,0,1.24,0,1.28,0c0.05,0,0.1,0,0.15,0c0.6,0,1.5-0.03,2.36-0.19s1.68-0.45,2.11-0.97
		c0.54-0.64,0.51-2.36,0.32-4.05c-0.19-1.69-0.55-3.37-0.68-3.92c-0.38-1.5-1.59-2.42-2.74-2.97s-2.22-0.72-2.31-0.74l-0.02,0
		l-0.02,0l-3.73,0.12l-3.41,0.11c-0.21,0.01-0.41-0.07-0.56-0.21l-3.39-3.24l-3.62-3.47l-0.08,0l-0.08,0
		c-0.39-0.01-5.14-0.08-10.07-0.12c-4.93-0.04-10.03-0.03-11.1,0.13c-1.08,0.16-2.19,1.62-3.09,3.21c-0.76,1.33-1.38,2.76-1.71,3.56
		c-0.1,0.25-0.31,0.42-0.58,0.46c-0.95,0.16-2.54,0.44-4.06,0.79c-1.79,0.4-3.49,0.89-3.99,1.35c-0.59,0.56-0.73,2.4-0.6,4.27
		c0.13,1.87,0.52,3.77,0.98,4.44"/>
	<path class="st1" d="M15.34,38.57l13.95-0.01h13.68"/>
	<path class="st1" d="M3.03,37.13c0.35,0.52,0.85,0.79,1.34,0.92s2.19,0.15,2.52,0.12"/>
	<path class="st1" d="M7.04,36.75c0-2.4,1.95-4.35,4.35-4.35c2.4,0,4.35,1.95,4.35,4.35c0,2.4-1.95,4.35-4.35,4.35
		C8.99,41.1,7.04,39.15,7.04,36.75"/>
</g>
</svg>
