<?xml version="1.0" encoding="utf-8"?>
<!-- Generator: Adobe Illustrator 23.0.1, SVG Export Plug-In . SVG Version: 6.00 Build 0)  -->
<svg version="1.1" id="Layer_1" xmlns="http://www.w3.org/2000/svg" xmlns:xlink="http://www.w3.org/1999/xlink" x="0px" y="0px"
	 viewBox="0 0 60 60" style="enable-background:new 0 0 60 60;" xml:space="preserve">
<g>
	<g>
		<path d="M21.02,2.68c1.78,0,3.23,1.45,3.23,3.23c0,1.65-1.27,3.07-2.9,3.22L19.43,9.3l0.11,1.93l0.59,10.52l0.11,1.89l1.89,0
			l11.41,0v0.91l-10.91,0l-2.15,0l0.16,2.15l0.24,3.32l0.14,1.87l1.87-0.01l16.52-0.11l7.09,16.36l0.75,1.72l1.77-0.64l3.99-1.44
			l0.07,0.17l-6.62,2.59l-7.11-16.65l-0.52-1.21l-1.32,0l-17.32,0L18.44,8.3l-0.03-0.43l-0.21-0.38C17.94,7,17.79,6.43,17.79,5.91
			C17.79,4.13,19.24,2.68,21.02,2.68 M21.02,0.68c-2.88,0-5.23,2.35-5.23,5.23c0,0.88,0.24,1.78,0.65,2.53l1.86,26.21l19.19,0.01
			l7.87,18.44l10.33-4.05l-1.6-3.81l-5.78,2.09L40.7,29.74l-17.84,0.12l-0.24-3.32l12.91,0.01v-4.91l-13.41-0.01l-0.59-10.52
			c2.65-0.25,4.72-2.53,4.72-5.21C26.25,3.03,23.9,0.68,21.02,0.68L21.02,0.68z"/>
	</g>
	<g>
		<path d="M13.81,25.88l0.11,1.41c-3.95,2.96-6.36,7.76-6.36,12.79c0,8.81,7.17,15.98,15.98,15.98c6.22,0,11.69-3.58,14.31-8.89
			l0.72,1.48c-3.07,5.29-8.85,8.66-15,8.66c-9.53,0-17.28-7.75-17.28-17.28C6.3,34.44,9.23,29.06,13.81,25.88 M15.57,22.59
			C8.82,25.66,4.3,32.59,4.3,40.04c0,10.62,8.66,19.28,19.28,19.28c7.23,0,14.01-4.22,17.24-10.62l-3.41-6.98
			c-0.82,6.94-6.83,12.35-13.88,12.35c-7.7,0-13.98-6.28-13.98-13.98c0-4.75,2.46-9.29,6.45-11.8L15.57,22.59L15.57,22.59z"/>
	</g>
</g>
</svg>
