<?xml version="1.0" encoding="utf-8"?>
<!-- Generator: Adobe Illustrator 23.0.1, SVG Export Plug-In . SVG Version: 6.00 Build 0)  -->
<svg version="1.1" id="Layer_1" xmlns="http://www.w3.org/2000/svg" xmlns:xlink="http://www.w3.org/1999/xlink" x="0px" y="0px"
	 viewBox="0 0 60 60" style="enable-background:new 0 0 60 60;" xml:space="preserve">
<style type="text/css">
	.st0{fill-rule:evenodd;clip-rule:evenodd;fill:none;stroke:#000000;stroke-width:2;stroke-miterlimit:10;}
	.st1{fill:none;stroke:#000000;stroke-width:2;stroke-miterlimit:10;}
</style>
<g>
	<path class="st0" d="M57.8,22.04L30.56,33.36c-0.21,0.09-0.44,0.09-0.65,0L2.67,22.04c-0.06-0.03-0.06-0.12,0.01-0.13l27.39-5.42
		c0.11-0.02,0.22-0.02,0.33,0l27.39,5.42C57.86,21.92,57.87,22.01,57.8,22.04z"/>
	<path class="st1" d="M30.23,33.56l-15.49-6.44v10.22c0,0.47,0.28,0.9,0.71,1.09l9.94,4.31c3.11,1.06,6.61,1.06,9.67,0l9.94-4.31
		c0.43-0.19,0.71-0.61,0.71-1.09V27.12L30.23,33.56z"/>
	<path class="st1" d="M10.51,25.51c0.06-0.03,0.12-0.11-0.04-0.06c-0.6,0.17-2.3,0.7-3.73,2.11c-2.11,2.09-4.2,6.9-4.74,8.45
		l1.45,0.54c0,0,1.86-7.06,3.33-8.94C7.95,26.13,10.42,25.55,10.51,25.51z"/>
</g>
</svg>
