<?xml version="1.0" encoding="utf-8"?>
<!-- Generator: Adobe Illustrator 23.0.1, SVG Export Plug-In . SVG Version: 6.00 Build 0)  -->
<svg version="1.1" id="Layer_1" xmlns="http://www.w3.org/2000/svg" xmlns:xlink="http://www.w3.org/1999/xlink" x="0px" y="0px"
	 viewBox="0 0 60 60" style="enable-background:new 0 0 60 60;" xml:space="preserve">
<style type="text/css">
	.st0{fill:none;stroke:#000000;stroke-width:2;stroke-miterlimit:10;}
</style>
<g>
	<g>
		<g>
			<path class="st0" d="M14.06,13.35L14.06,13.35c0.02,0,0.08,0,0.1,0v0c3.15-0.03,5.7-2.59,5.7-5.75s-2.55-5.73-5.7-5.75v0
				c-0.02,0-0.08,0-0.1,0v0c-3.15,0.03-5.7,2.59-5.7,5.75S10.9,13.32,14.06,13.35z"/>
			<ellipse class="st0" cx="46.46" cy="7.6" rx="5.75" ry="5.76"/>
			<path class="st0" d="M49.55,14.34c-0.52-0.29-1.09-0.51-1.66-0.65l-1.43,1.44l-1.39-1.46c-0.01,0-0.01,0-0.02,0
				c-0.73,0.17-2.33,1.01-2.45,1.08c-4.42,2.71-6.36,6.71-8.39,15.97c-0.18,0.83,0.13,1.65,0.73,2.16c0.21,1.41,0.09,2.46-0.35,2.77
				c-0.83,0.59-1.95-0.35-2.34-0.64c-0.44-0.34-0.95-0.59-1.48-0.72c0,0-0.01,0-0.01,0l-0.84,0.88l-0.84-0.88c0,0-0.01,0-0.01,0
				c-0.53,0.13-1.05,0.38-1.48,0.72c-0.39,0.29-1.51,1.23-2.34,0.64c-0.46-0.32-0.57-1.4-0.35-2.83c0.47-0.4,0.77-0.99,0.78-1.66
				c0.61-13.56-9.35-17.29-10.15-17.48l-1.43,1.44l-1.43-1.44c-0.79,0.19-10.76,3.92-10.15,17.48c0.02,1.22,1.01,2.2,2.23,2.2
				c0.01,0,0.02,0,0.03,0c1.23-0.02,2.22-1.03,2.2-2.26c-0.03-2.43,0.16-4.33,0.52-5.85c0,0,0.36-1.35,0.71-1.53v3.43
				c-0.63,2.73-3.26,14.21-3.26,15.92c0,0.84,1.59,1.45,3.81,1.81v10.47c0,1.46,0.96,2.64,2.41,2.64c1.46,0,2.67-1.18,2.67-2.64
				l-0.03-10.09c0.02,0,0.04,0,0.06,0c0.02,0,0.41,0,0.43,0v10.09c0,1.46,1.18,2.64,2.64,2.64c1.46,0,2.5-1.18,2.5-2.64V44.89
				c2.23-0.36,3.81-0.97,3.81-1.81c-0.01-1.71-2.64-13.2-3.26-15.92v-3.43c0.36,0.18,0.71,1.53,0.71,1.53
				c0.36,1.52,0.55,3.42,0.52,5.85c-0.01,0.85,0.45,1.59,1.15,1.98c-0.22,2.14,0.24,3.66,1.35,4.54c0.71,0.55,1.53,0.73,2.29,0.73
				c0.13,0,0.25-0.01,0.38-0.01c0,0.13-0.01,0.26-0.01,0.4v5.3c0,0.36,0.12,0.95,0.24,1.25c-0.01,0.07-0.02,11.11-0.02,11.11
				c0,0.88,0.71,1.59,1.59,1.59s1.59-0.71,1.59-1.59V47.1l0.05,0v0l0.09,0l0.09,0v0l0.05,0v9.32c0,0.88,0.71,1.59,1.59,1.59
				s1.59-0.71,1.59-1.59c0,0-0.01-11.04-0.02-11.11c0.12-0.31,0.24-0.89,0.24-1.25v-5.3c0-0.14,0-0.27-0.01-0.4
				c0.12,0.01,0.25,0.01,0.38,0.01c0.75,0,1.58-0.17,2.29-0.73c1.11-0.87,1.57-2.39,1.36-4.52c0.14-0.06,0.27-0.14,0.39-0.24
				c0.34-0.3,0.6-0.71,0.7-1.19c0.66-3.03,1.3-5.26,1.99-7.38v7.09c0,0.68,0.15,1.4,0.41,1.97l-0.01,21.99
				c0,1.46,1.18,2.64,2.64,2.64c1.46,0,2.64-1.18,2.64-2.64v-18.9l0.37,0v18.89c0,1.46,1.18,2.64,2.64,2.64s2.64-1.18,2.64-2.64
				l-0.01-22c0.28-0.59,0.45-1.25,0.45-1.97v-7.06c0,0,1.11,1.86,0.59,6.38c-0.12,1.23,0.77,2.32,2,2.45
				c0.08,0.01,0.15,0.01,0.22,0.01c1.13,0,2.1-0.86,2.22-2.01C58.39,21.11,53.07,16.28,49.55,14.34z M46.46,29.32
				c-0.37,0-0.67-0.3-0.67-0.67c0-0.37,0.3-0.67,0.67-0.67c0.37,0,0.67,0.3,0.67,0.67C47.13,29.02,46.83,29.32,46.46,29.32z
				 M46.46,27.22c-0.37,0-0.67-0.3-0.67-0.67c0-0.37,0.3-0.67,0.67-0.67c0.37,0,0.67,0.3,0.67,0.67
				C47.13,26.92,46.83,27.22,46.46,27.22z M46.46,25.2c-0.37,0-0.67-0.3-0.67-0.67c0-0.37,0.3-0.67,0.67-0.67
				c0.37,0,0.67,0.3,0.67,0.67C47.13,24.9,46.83,25.2,46.46,25.2z M46.57,22.59l-1.04-5.74l0.93-0.91l0.97,0.9L46.57,22.59z"/>
			<path class="st0" d="M29.81,34.11c0.04,0,0.07,0,0.11,0c0,0,0,0,0,0c0,0,0,0,0,0c0.04,0,0.07,0,0.11,0
				c1.86-0.06,3.35-1.59,3.35-3.47c0-1.88-1.49-3.4-3.35-3.46v0c-0.04,0-0.07,0-0.11,0c0,0,0,0,0,0c0,0,0,0,0,0
				c-0.04,0-0.07,0-0.11,0v0c-1.86,0.06-3.35,1.58-3.35,3.46C26.46,32.52,27.95,34.05,29.81,34.11z"/>
		</g>
	</g>
</g>
</svg>
