<?xml version="1.0" encoding="utf-8"?>
<!-- Generator: Adobe Illustrator 23.0.1, SVG Export Plug-In . SVG Version: 6.00 Build 0)  -->
<svg version="1.1" id="Layer_1" xmlns="http://www.w3.org/2000/svg" xmlns:xlink="http://www.w3.org/1999/xlink" x="0px" y="0px"
	 viewBox="0 0 60 60" style="enable-background:new 0 0 60 60;" xml:space="preserve">
<style type="text/css">
	.st0{fill:none;stroke:#000000;stroke-width:2;stroke-miterlimit:10;}
</style>
<g>
	<title>gears</title>
	<g>
		<g id="Layer_1-2_1_">
			<path class="st0" d="M50.31,24.33l-1.9-4.77l3.91-6.64l-5.28-5.21l-6.64,3.91l-4.73-1.95l-1.99-7.65h-7.39l-1.95,7.64l-4.73,1.95
				L12.97,7.7l-5.28,5.21l3.91,6.64l-1.9,4.77L2,26.36v7.3l7.66,2.03l1.9,4.77l-3.91,6.64l5.28,5.21l6.64-3.91l4.73,1.95l1.95,7.64
				h7.43l1.95-7.64l4.73-1.95L47,52.3l5.28-5.21l-3.91-6.64l1.9-4.77l7.66-2.03v-7.3L50.31,24.33z M29.99,43.38
				C22.6,43.38,16.6,37.39,16.6,30s5.98-13.38,13.37-13.39s13.38,5.98,13.39,13.37c0,0,0,0.01,0,0.01
				C43.36,37.39,37.37,43.37,29.99,43.38z"/>
		</g>
	</g>
</g>
</svg>
