<?xml version="1.0" encoding="utf-8"?>
<!-- Generator: Adobe Illustrator 23.0.1, SVG Export Plug-In . SVG Version: 6.00 Build 0)  -->
<svg version="1.1" id="Layer_1" xmlns="http://www.w3.org/2000/svg" xmlns:xlink="http://www.w3.org/1999/xlink" x="0px" y="0px"
	 viewBox="0 0 60 60" style="enable-background:new 0 0 60 60;" xml:space="preserve">
<style type="text/css">
	.st0{display:none;fill:none;stroke:#000000;stroke-width:2;stroke-linejoin:round;stroke-miterlimit:10;}
	.st1{fill:none;stroke:#000000;stroke-width:2;stroke-linejoin:round;stroke-miterlimit:10;}
</style>
<g>
	<path class="st0" d="M21.85,42.76c-1.41,1.42-1.48,3.36-0.21,4.75c1.39,1.52,3.45,1.51,5.03-0.07c4.07-4.06,8.12-8.13,12.17-12.21
		c0.26-0.26,0.39-0.64,0.58-0.97c0.09,0.09,0.18,0.19,0.28,0.28c0.4,0.35,0.8,0.7,1.41,1.22c-0.45,0.32-0.79,0.51-1.05,0.77
		c-4.04,4.04-8.07,8.09-12.11,12.13c-0.87,0.87-1.4,1.85-1.16,3.1c0.25,1.34,1.03,2.3,2.35,2.71c1.31,0.41,2.46,0.07,3.45-0.91
		c4.36-4.35,8.74-8.67,13.1-13.02c2.67-2.67,5.42-5.27,7.93-8.08c3.66-4.09,5.17-8.95,4-14.36C55.54,8.4,45.48,2.97,36.18,6.43
		c-1.94,0.72-3.7,1.78-5.24,3.33c2.01,1.98,3.93,3.9,5.88,5.81c1.88,1.85,2.36,4.03,1.39,6.44c-1,2.49-2.92,3.85-5.63,4.03
		c-1.79,0.12-3.21-0.68-4.42-1.86c-0.12,0.07-0.19,0.09-0.24,0.13c-4.14,4.14-8.28,8.26-12.38,12.43c-0.43,0.43-0.74,1.08-0.87,1.68
		c-0.33,1.46,0.41,2.89,1.71,3.6c1.35,0.74,2.83,0.53,4.01-0.65c4.12-4.1,8.22-8.23,12.33-12.34c0.26-0.26,0.53-0.51,0.72-0.69
		c0.52,0.44,0.98,0.83,1.49,1.26 M18.3,11.99c0.31,0.4,0.51,0.72,0.77,0.99c3.33,3.35,6.66,6.71,10.02,10.03
		c0.54,0.54,1.19,1.04,1.89,1.32c1.89,0.76,4.22-0.13,5.42-1.95c1.22-1.84,1.08-4.06-0.44-5.61c-2.26-2.31-4.53-4.6-6.85-6.86
		c-4.03-3.93-8.89-5.31-14.34-4.17C6.08,7.57,0.71,15.6,2.26,24.33c0.61,3.42,2.26,6.35,4.83,8.99c-0.02-2.03,1.04-3.3,2.27-4.52
		c2.84-2.79,5.62-5.63,8.44-8.44c1.08-1.08,2.19-2.13,3.41-3.31c-1.42-1.32-2.72-2.54-4.02-3.74C17.6,12.83,17.88,12.49,18.3,11.99z
		 M22.14,18.28c-4.26,4.2-8.52,8.39-12.76,12.61c-0.77,0.76-1,1.77-0.73,2.83c0.32,1.29,1.11,2.17,2.39,2.55
		c1.29,0.39,2.4,0.04,3.35-0.91c4.01-4.02,8.02-8.03,12.03-12.05c0.14-0.14,0.25-0.31,0.35-0.42C25.19,21.33,23.66,19.8,22.14,18.28
		z"/>
	<path class="st1" d="M21.34,42.44c-1.41,1.42-0.7,4.03,0.63,5.36c1.2,1.2,3.81,1.83,5.39,0.25c4.07-4.06,8.12-8.13,12.17-12.21
		c0.26-0.26,0.26-0.26,0,0c-4.04,4.04-8.07,8.09-12.11,12.13c-0.87,0.87-1.32,3.98,0.21,5.51c1.51,1.51,3.96,1.07,4.95,0.09
		c4.36-4.35,8.74-8.67,13.1-13.02c2.67-2.67,5.42-5.27,7.93-8.08c3.66-4.09,5.17-8.95,4-14.36C55.54,8.4,45.48,2.97,36.18,6.43
		c-1.94,0.72-3.7,1.78-5.24,3.33c2.01,1.98,4.05,4.02,5.93,5.93c6.68,5.95-2.08,13.98-8.17,7.88c-0.12,0.07-0.74,0.7-0.78,0.74
		c-4.14,4.14-7.54,7.55-11.69,11.72c-1.59,1.6-1.45,4.59-0.14,5.9c1.48,1.48,4.67,1.07,5.85-0.11l11.4-11.61l0.34-0.19L21.34,42.44z
		"/>
	<path class="st1" d="M10.98,36.75c-2.57-2.64-8.11-9-8.72-12.42C0.71,15.6,6.08,7.57,14.78,5.75c5.45-1.14,11.28-0.78,15.31,3.15
		c0.26,0.25,0.59,0.6,0.85,0.86"/>
	<path class="st1" d="M15.73,36.63c-0.95,0.95-2.06,1.3-3.35,0.91c-1.27-0.38-2.69-1.72-3.01-3c-0.26-1.07,0.45-2.19,1.22-2.95
		c4.23-4.22,8.94-8.75,13.2-12.95c1.53,1.6,3.42,3.38,4.91,4.94L15.73,36.63z"/>
</g>
<path class="st1" d="M30.94,9.76"/>
</svg>
