<?xml version="1.0" encoding="utf-8"?>
<!-- Generator: Adobe Illustrator 23.0.1, SVG Export Plug-In . SVG Version: 6.00 Build 0)  -->
<svg version="1.1" id="Layer_1" xmlns="http://www.w3.org/2000/svg" xmlns:xlink="http://www.w3.org/1999/xlink" x="0px" y="0px"
	 viewBox="0 0 60 60" style="enable-background:new 0 0 60 60;" xml:space="preserve">
<style type="text/css">
	.st0{fill:none;}
	.st1{fill:none;stroke:#000000;stroke-width:2;stroke-miterlimit:10;}
</style>
<g>
	<rect x="2" y="1.5" class="st0" width="56" height="56"/>
	<path class="st1" d="M35.84,40.98c0,0,4.54-2.6,5.72-3.22c1.18-0.63,2.41-0.78,3.16-0.33c1.13,0.69,10.6,6.99,11.4,7.55
		c0.8,0.56,1.18,2.15,0.09,3.72c-1.09,1.56-6.13,7.75-8.26,7.68c-2.14-0.07-11.03-0.26-27.79-17.03
		C3.38,22.59,3.18,13.69,3.12,11.56c-0.07-2.14,6.11-7.18,7.68-8.27c1.57-1.09,3.16-0.68,3.72,0.09c0.63,0.87,6.86,10.32,7.54,11.4
		c0.47,0.74,0.3,1.97-0.33,3.16c-0.62,1.19-3.22,5.72-3.22,5.72s1.83,3.12,8.02,9.31C32.72,39.15,35.84,40.98,35.84,40.98z"/>
</g>
</svg>
