<?xml version="1.0" encoding="utf-8"?>
<!-- Generator: Adobe Illustrator 23.0.1, SVG Export Plug-In . SVG Version: 6.00 Build 0)  -->
<svg version="1.1" id="Layer_1" xmlns="http://www.w3.org/2000/svg" xmlns:xlink="http://www.w3.org/1999/xlink" x="0px" y="0px"
	 viewBox="0 0 60 60" style="enable-background:new 0 0 60 60;" xml:space="preserve">
<style type="text/css">
	.st0{fill:none;stroke:#000000;stroke-width:2;stroke-linecap:round;stroke-linejoin:round;stroke-miterlimit:10;}
</style>
<g>
	<path class="st0" d="M36.41,7.86c0.04-0.04,0.07-0.07,0.11-0.11c0.56-0.57,0.79-0.6,1.51-0.28c1.05,0.46,2.13,0.85,3.23,1.19
		c1.99,0.61,4.01,1.12,5.96,1.87c1,0.39,1.94,0.89,2.67,1.72c0.47,0.54,0.94,1.07,1.4,1.61c1.21,1.43,2.41,2.87,3.61,4.31
		c0.96,1.15,1.93,2.28,2.87,3.44c0.31,0.38,0.37,0.7-0.1,1.08c-1.15,0.95-2.29,1.9-3.44,2.84c-1.11,0.91-2.22,1.83-3.33,2.73
		c-0.45,0.37-0.9,0.74-1.37,1.08c-0.22,0.16-0.56,0.12-0.73-0.07c-0.68-0.77-1.36-1.54-2.04-2.31c-0.37-0.42-0.88-1.12-1.16-1.07
		c-0.13,0.02-0.28,0.13-0.28,0.13c-0.32,0.29-0.46,0.66-0.53,1.08c-0.17,0.96-0.28,1.93-0.36,2.91c-0.11,1.31-0.19,2.62-0.19,3.93
		c-0.01,2.79-0.04,5.59,0.09,8.38c0.09,1.93,0.13,3.86,0.23,5.78c0.03,0.54-0.02,1.08,0.08,1.62c0.08,0.38-0.06,0.73-0.45,0.91
		c-0.15,0.07-0.3,0.16-0.46,0.21c-1.58,0.49-3.21,0.79-4.84,1.05c-1.33,0.21-2.66,0.37-4,0.53c-0.98,0.11-1.96,0.23-2.94,0.23
		c-0.9,0-1.8,0.16-2.7,0.03c-0.56-0.08-1.14-0.04-1.72-0.07c-1.15-0.06-2.29-0.17-3.43-0.31c-1.93-0.23-3.85-0.5-5.75-0.93
		c-0.84-0.19-1.69-0.35-2.49-0.7c-0.38-0.16-0.54-0.45-0.52-0.84c0.01-0.19,0.06-0.37,0.06-0.56c0-0.55,0.04-1.1,0.07-1.65
		c0.08-1.52,0.13-3.04,0.18-4.56c0.04-1.11,0.11-2.22,0.1-3.33c-0.02-2.36,0.06-4.72-0.05-7.08c-0.07-1.57-0.14-3.14-0.37-4.7
		c-0.1-0.72-0.37-1.96-0.73-2c-0.39-0.05-0.88,0.49-0.88,0.49c-0.82,0.94-1.65,1.85-2.49,2.77c-0.27,0.3-0.52,0.33-0.84,0.1
		c-0.33-0.24-0.63-0.51-0.95-0.77c-1.39-1.13-2.78-2.26-4.17-3.4c-0.96-0.79-1.93-1.58-2.87-2.39c-0.53-0.45-0.52-0.74-0.08-1.26
		c0.78-0.92,1.54-1.85,2.32-2.77c0.89-1.06,1.77-2.13,2.67-3.19c0.74-0.88,1.53-1.73,2.23-2.64c0.88-1.14,2-1.92,3.34-2.42
		c1.36-0.51,2.75-0.91,4.14-1.32c1.76-0.51,3.5-1.06,5.19-1.8c0.35-0.15,0.66-0.13,0.95,0.11c0.15,0.12,0.28,0.26,0.42,0.38"/>
	<path class="st0" d="M23.58,7.89c-0.29,0.69-0.05,1.34,0.21,1.96c0.97,2.29,2.82,3.4,5.19,3.7c2.01,0.26,3.91-0.12,5.53-1.43
		c1.11-0.89,1.8-2.04,2.01-3.47c0.03-0.21-0.03-0.4-0.05-0.6c-0.01-0.18-0.13-0.24-0.31-0.25c-0.52-0.05-0.99,0.18-1.47,0.3
		c-1.07,0.27-2.16,0.44-3.26,0.53c-0.81,0.07-1.62,0.08-2.42,0.04c-1.51-0.07-3-0.32-4.45-0.76c-0.32-0.1-0.63-0.13-0.95-0.07"/>
</g>
</svg>
