<?xml version="1.0" encoding="utf-8"?>
<!-- Generator: Adobe Illustrator 23.0.1, SVG Export Plug-In . SVG Version: 6.00 Build 0)  -->
<svg version="1.1" id="Layer_1" xmlns="http://www.w3.org/2000/svg" xmlns:xlink="http://www.w3.org/1999/xlink" x="0px" y="0px"
	 viewBox="0 0 60 60" style="enable-background:new 0 0 60 60;" xml:space="preserve">
<style type="text/css">
	.st0{fill:none;stroke:#000000;stroke-width:2;stroke-miterlimit:10;}
	.st1{fill:none;stroke:#000000;stroke-width:2;stroke-linecap:round;stroke-miterlimit:10;}
</style>
<ellipse class="st0" cx="30" cy="8.4" rx="26.17" ry="5.28"/>
<path class="st1" d="M7.08,17.15c3.19,2.22,17.16,2.55,22.92,2.5c5.75-0.05,19.7-1.46,22.82-2.92"/>
<path class="st1" d="M8.97,22.77c4.64,2.46,28.1,2.82,37.85,1.06"/>
<path class="st1" d="M8.47,27.98c1.88,1.46,27.31,3.14,32.76,1.67"/>
<path class="st1" d="M8.97,33.88c1.99,1.16,21.52,2.26,24.49,1.77"/>
<path class="st1" d="M11.93,39.6c2.15,0.94,15.81,1.49,18.33,1.39"/>
<path class="st1" d="M16.92,45.86c3.11,0.4,10.21,0.52,13.08,0.48"/>
<path class="st1" d="M23.96,51.65c1.05,0.07,6.07,0.14,8.35,0.06"/>
<line class="st1" x1="31.29" y1="56.56" x2="29.65" y2="56.56"/>
</svg>
