<?xml version="1.0" encoding="utf-8"?>
<!-- Generator: Adobe Illustrator 23.0.1, SVG Export Plug-In . SVG Version: 6.00 Build 0)  -->
<svg version="1.1" id="Layer_1" xmlns="http://www.w3.org/2000/svg" xmlns:xlink="http://www.w3.org/1999/xlink" x="0px" y="0px"
	 viewBox="0 0 60 60" style="enable-background:new 0 0 60 60;" xml:space="preserve">
<style type="text/css">
	.st0{fill:none;stroke:#000000;stroke-width:2;stroke-miterlimit:10;}
</style>
<g>
	<path class="st0" d="M36.41,53.23c-5.57,0.32-11.16,0-16.74,0c-5.64,0-6.66-0.01-12.3-0.01c0,0-3.4-0.02-4.45-1.05
		c-1.08-1.07-0.88-3.68-0.88-3.68c-0.13-3.8,0.06-4.02,0.38-7.8c0.23-2.76,0.61-5.51,0.75-8.28c0.01-0.2,0.02-0.42,0.18-0.55
		c0.48-0.4,0.78-1.04,1.54-1.05c0.4,0,0.74-0.27,1.1-0.42c1.35-0.54,2.21-1.82,3.58-2.32c0.02-0.01,0.03-0.04,0.05-0.07
		c0.42-0.59,1.06-0.82,1.72-1.01c0.68-0.19,1.41-0.27,2.02-0.64c0.66-0.4,1.37-0.67,2.07-0.97c1.17-0.5,2.32-1.06,3.06-2.19
		c0.13-0.21,0.34-0.39,0.54-0.53c0.28-0.2,0.42-0.45,0.41-0.79c-0.03-0.85-0.14-1.67-0.58-2.45c-0.59-1.05-0.94-2.18-0.37-3.38
		c0.18-0.39,0.16-0.83,0.12-1.26c-0.06-0.53-0.13-1.07-0.23-1.6c-0.11-0.6-0.17-1.18,0.32-1.66c0.13-0.13,0.02-0.26,0.03-0.38
		c0.1-0.91,0-1.79-0.23-2.68c-0.22-0.83,0.14-1.33,0.99-1.43c1.48-0.17,2.95-0.56,4.47-0.31c0.92,0.15,1.86,0.21,2.79,0.19
		c1.36-0.03,2.63,0.35,3.92,0.65c0.51,0.12,0.63,0.38,0.5,0.86c-0.17,0.63-0.32,1.26-0.46,1.9c-0.12,0.53-0.09,1.11,0.37,1.39
		c0.73,0.44,1.31,1.07,2.03,1.5c1.19,0.71,2.47,1.25,3.8,1.67c0.65,0.21,1.28,0.48,1.84,0.86c1.19,0.81,2.48,1.45,3.61,2.37
		c0.94,0.76,2.06,1.24,3.3,0.53c0.18-0.1,0.39-0.1,0.57,0c0.93,0.53,1.99,0.93,2.69,1.74c0.62,0.71,1.28,1.14,2.18,1.29
		c0.25,0.04,0.48,0.17,0.72,0.25c1.07,0.34,1.88,0.97,2.36,2.03c0.31,0.66,0.68,1.3,0.99,1.97c0.73,1.62,1.38,3.29,2.21,4.87
		c0.54,1.02,0.63,2.1,0.57,3.22c-0.02,0.37-0.15,0.67-0.47,0.85c-0.81,0.47-1.51,1.09-2.27,1.63c-0.35,0.25-0.74,0.4-1.16,0.49
		c-2.38,0.52-4.76,1.05-7.13,1.6c-1.11,0.26-2.19,0.46-3.34,0.1c-1.03-0.33-1.87,0.17-2.4,1.01c-1.09,1.73-1.97,3.53-2.16,5.64
		c-0.22,2.37,0.05,3.11-0.56,5.4C38.29,51.52,37.51,53.17,36.41,53.23z M30.4,15.46c0.36,1.33,0.23,2.65-0.35,3.87
		c-0.52,1.08-0.62,2.23-0.89,3.35c-0.07,0.28-0.01,0.58,0.14,0.82c0.4,0.65,0.7,1.36,1.14,1.99c0.89,1.27,2.18,1.73,3.61,1.58
		c1.53-0.16,3.04-0.1,4.56,0.01c1.89,0.13,3.78,0.26,5.68,0.24c0.19,0,0.4,0.02,0.59-0.19c-0.26-0.48-0.43-1.01-0.55-1.56
		c-0.04-0.18-0.16-0.44-0.3-0.49c-1.07-0.38-1.54-1.38-2.22-2.13c-1.18-1.3-2.63-2.22-4.05-3.19c-0.41-0.28-0.91-0.29-1.37-0.42
		c-0.3-0.08-0.61-0.14-0.9-0.25c-0.39-0.16-0.63-0.46-0.39-0.87c0.27-0.45,0.05-0.67-0.3-0.89c-0.69-0.44-1.38-0.89-2.07-1.33
		c-0.63-0.4-1.19-0.86-1.54-1.54c-0.13-0.26-0.33-0.45-0.66-0.54C30.22,14.41,30.26,14.93,30.4,15.46z"/>
</g>
</svg>
